<svg width="54" height="54" viewBox="0 0 54 54" fill="none" xmlns="http://www.w3.org/2000/svg">
<path d="M53.6667 40.1204V48.1204C53.6697 48.8631 53.5176 49.5982 53.22 50.2787C52.9225 50.9592 52.4861 51.57 51.9389 52.0721C51.3916 52.5741 50.7455 52.9564 50.042 53.1943C49.3385 53.4322 48.593 53.5206 47.8533 53.4538C39.6476 52.5621 31.7653 49.7581 24.84 45.2671C18.3969 41.1729 12.9342 35.7102 8.84 29.2671C4.33327 22.3103 1.52864 14.3897 0.653328 6.14709C0.586689 5.40967 0.674328 4.66645 0.910662 3.96475C1.147 3.26306 1.52685 2.61826 2.02604 2.07141C2.52522 1.52456 3.13281 1.08765 3.8101 0.78848C4.4874 0.489314 5.21957 0.334452 5.96 0.333755H13.96C15.2541 0.321017 16.5088 0.779298 17.49 1.62318C18.4713 2.46705 19.1122 3.63895 19.2933 4.92042C19.631 7.4806 20.2572 9.99436 21.16 12.4138C21.5188 13.3682 21.5964 14.4055 21.3837 15.4028C21.1711 16.4 20.677 17.3154 19.96 18.0404L16.5733 21.4271C20.3695 28.1032 25.8972 33.6309 32.5733 37.4271L35.96 34.0404C36.685 33.3235 37.6004 32.8294 38.5976 32.6167C39.5949 32.404 40.6322 32.4816 41.5867 32.8404C44.0061 33.7432 46.5198 34.3694 49.08 34.7071C50.3754 34.8898 51.5584 35.5423 52.4041 36.5404C53.2498 37.5385 53.6991 38.8126 53.6667 40.1204Z" fill="black"/>
</svg>
