<svg width="54" height="44" viewBox="0 0 54 44" fill="none" xmlns="http://www.w3.org/2000/svg">
<path d="M48.3333 0.666504H5.66665C4.10132 0.666504 -0.150167 2.40639 1.86277 3.81545L27.0002 21.4117L52.1376 3.81545C54.1503 2.40657 49.898 0.666504 48.3333 0.666504Z" fill="black"/>
<path d="M53.6666 11.304C53.6666 10.441 52.6952 9.93529 51.9883 10.4302L28.5294 26.8514C27.6113 27.4941 26.3892 27.4941 25.471 26.8514L2.01167 10.4298C1.30471 9.93497 0.333313 10.4407 0.333313 11.3037V37.9998C0.333313 40.9332 2.73331 43.3332 5.66665 43.3332H48.3333C51.2666 43.3332 53.6666 40.9332 53.6666 37.9998V11.304Z" fill="black"/>
</svg>
