<svg width="48" height="48" viewBox="0 0 48 48" fill="none" xmlns="http://www.w3.org/2000/svg">
<path d="M9.33465 41.4999C8.54748 41.4999 7.86991 41.2159 7.30195 40.648C6.73401 40.08 6.45005 39.4025 6.45005 38.6153V21.8769C5.52951 21.141 4.91285 20.2217 4.60005 19.1192C4.28721 18.0166 4.30771 16.9013 4.66155 15.7731L6.7154 9.19615C6.98206 8.32179 7.4295 7.65383 8.0577 7.1923C8.6859 6.73077 9.42693 6.5 10.2808 6.5H37.4884C38.3833 6.5 39.1615 6.73268 39.823 7.19805C40.4846 7.66345 40.9423 8.31665 41.1961 9.15765L43.3384 15.7731C43.6923 16.9013 43.7044 18.023 43.375 19.1384C43.0455 20.2538 42.4205 21.1794 41.5 21.9153V38.6153C41.5 39.4025 41.216 40.08 40.648 40.648C40.0801 41.2159 39.4025 41.4999 38.6153 41.4999H9.33465ZM28.4615 20.8654C29.6077 20.8654 30.5269 20.5231 31.2192 19.8385C31.9115 19.1538 32.1974 18.3807 32.0769 17.5192L30.75 8.76915H25.1346V17.2884C25.1346 18.2448 25.4532 19.0801 26.0903 19.7942C26.7275 20.5083 27.518 20.8654 28.4615 20.8654ZM19.2077 20.8654C20.2436 20.8654 21.1122 20.5166 21.8135 19.8192C22.5148 19.1218 22.8654 18.2782 22.8654 17.2884V8.76915H17.2307L15.9038 17.5962C15.7961 18.3602 16.0615 19.0961 16.7 19.8038C17.3385 20.5115 18.1744 20.8654 19.2077 20.8654ZM10.1654 20.8654C11.0423 20.8654 11.8013 20.5647 12.4423 19.9635C13.0834 19.3622 13.4603 18.623 13.5731 17.7461L14.8923 8.76915H9.8539C9.63593 8.76915 9.45963 8.81723 9.325 8.9134C9.19036 9.00957 9.0974 9.15382 9.0461 9.34615L6.9 16.3C6.541 17.4102 6.68395 18.4487 7.32885 19.4154C7.97371 20.382 8.91923 20.8654 10.1654 20.8654ZM37.7846 20.8654C38.941 20.8654 39.8724 20.4032 40.5788 19.4788C41.2853 18.5544 41.4526 17.4948 41.0808 16.3L38.9154 9.30765C38.8641 9.11535 38.7712 8.97752 38.6365 8.89415C38.5019 8.81082 38.3256 8.76915 38.1076 8.76915H33.0884L34.4076 17.7461C34.5333 18.623 34.9134 19.3622 35.548 19.9635C36.1827 20.5647 36.9282 20.8654 37.7846 20.8654ZM9.33465 39.2308H38.6153C38.782 39.2308 38.9263 39.1731 39.0481 39.0577C39.1699 38.9423 39.2308 38.7948 39.2308 38.6153V22.9884C39.1487 23.0474 38.9635 23.0865 38.675 23.1057C38.3865 23.1249 38.0897 23.1346 37.7846 23.1346C36.9384 23.1346 36.15 22.9531 35.4192 22.5903C34.6884 22.2275 33.9756 21.6602 33.2807 20.8884C32.7602 21.5679 32.1064 22.1121 31.3192 22.5211C30.532 22.9301 29.6103 23.1346 28.5539 23.1346C27.6308 23.1346 26.8173 22.9737 26.1134 22.6519C25.4096 22.3301 24.7051 21.8166 24 21.1115C23.4231 21.7756 22.7384 22.2788 21.9461 22.6211C21.1538 22.9634 20.3192 23.1346 19.4423 23.1346C18.4859 23.1346 17.6077 22.9608 16.8077 22.6134C16.0077 22.266 15.3244 21.691 14.7577 20.8884C13.8423 21.7294 12.9981 22.3141 12.225 22.6423C11.4519 22.9705 10.7654 23.1346 10.1654 23.1346C9.88076 23.1346 9.60768 23.1249 9.34615 23.1057C9.08461 23.0865 8.87563 23.0474 8.7192 22.9884V38.6153C8.7192 38.7948 8.7801 38.9423 8.9019 39.0577C9.02373 39.1731 9.16798 39.2308 9.33465 39.2308Z" fill="black"/>
</svg>
