<svg width="38" height="38" viewBox="0 0 38 38" fill="none" xmlns="http://www.w3.org/2000/svg">
<path d="M19 37.9999C16.3538 37.9999 13.875 37.5005 11.5634 36.5018C9.25192 35.5031 7.23782 34.1486 5.52115 32.4384C3.80448 30.7281 2.45513 28.7121 1.4731 26.3903C0.491033 24.0685 0 21.5782 0 18.9192C0 16.273 0.491033 13.7993 1.4731 11.4981C2.45513 9.19678 3.80448 7.19102 5.52115 5.48075C7.23782 3.77052 9.25192 2.4295 11.5634 1.4577C13.875 0.485903 16.3538 0 19 0C21.6461 0 24.1249 0.485903 26.4365 1.4577C28.748 2.4295 30.7621 3.77052 32.4788 5.48075C34.1954 7.19102 35.5448 9.19678 36.5268 11.4981C37.5089 13.7993 37.9999 16.273 37.9999 18.9192C37.9999 21.5782 37.5089 24.0685 36.5268 26.3903C35.5448 28.7121 34.1954 30.7281 32.4788 32.4384C30.7621 34.1486 28.748 35.5031 26.4365 36.5018C24.1249 37.5005 21.6461 37.9999 19 37.9999ZM19 35.8307C20.2436 34.4897 21.2666 33.0345 22.0692 31.4653C22.8718 29.8961 23.5295 28.0576 24.0423 25.9499H13.9884C14.4935 28.0268 15.1474 29.8621 15.95 31.4557C16.7525 33.0493 17.7692 34.5076 19 35.8307ZM15.827 35.423C14.8911 34.2076 14.0622 32.7929 13.3404 31.1788C12.6186 29.5647 12.0513 27.8217 11.6384 25.9499H3.6769C4.95637 28.5345 6.56407 30.5756 8.5 32.0731C10.4359 33.5705 12.8782 34.6871 15.827 35.423ZM22.223 35.3923C24.8409 34.8051 27.2076 33.6936 29.323 32.0577C31.4384 30.4218 33.1051 28.3858 34.323 25.9499H26.3922C25.8948 27.8268 25.2935 29.566 24.5884 31.1673C23.8832 32.7686 23.0948 34.1769 22.223 35.3923ZM2.94615 23.6808H11.2231C11.0974 22.7679 11.0167 21.9275 10.9808 21.1596C10.9449 20.3916 10.9269 19.6448 10.9269 18.9192C10.9269 18.1115 10.95 17.3474 10.9962 16.6269C11.0423 15.9064 11.1282 15.1269 11.2539 14.2884H2.94615C2.69998 15.0628 2.52562 15.8115 2.42305 16.5346C2.32048 17.2577 2.2692 18.0525 2.2692 18.9192C2.2692 19.7987 2.32048 20.6153 2.42305 21.3692C2.52562 22.123 2.69998 22.8936 2.94615 23.6808ZM13.5538 23.6808H24.4769C24.623 22.6731 24.7192 21.8154 24.7654 21.1077C24.8115 20.4 24.8346 19.6705 24.8346 18.9192C24.8346 18.2012 24.8115 17.5019 24.7654 16.8211C24.7192 16.1403 24.623 15.2961 24.4769 14.2884H13.5538C13.4076 15.2961 13.3115 16.1403 13.2653 16.8211C13.2192 17.5019 13.1961 18.2012 13.1961 18.9192C13.1961 19.6705 13.2192 20.4 13.2653 21.1077C13.3115 21.8154 13.4076 22.6731 13.5538 23.6808ZM26.7461 23.6808H35.0538C35.2999 22.8936 35.4743 22.123 35.5769 21.3692C35.6794 20.6153 35.7307 19.7987 35.7307 18.9192C35.7307 18.0525 35.6794 17.2577 35.5769 16.5346C35.4743 15.8115 35.2999 15.0628 35.0538 14.2884H26.7961C26.9089 15.391 26.9884 16.2891 27.0345 16.9827C27.0807 17.6762 27.1038 18.3217 27.1038 18.9192C27.1038 19.6653 27.0756 20.3987 27.0192 21.1192C26.9627 21.8397 26.8717 22.6936 26.7461 23.6808ZM26.3615 12.0192H34.323C33.1461 9.4628 31.516 7.37625 29.4326 5.75955C27.3493 4.14289 24.9294 3.07558 22.173 2.55765C23.1089 3.81662 23.9262 5.23008 24.6249 6.79805C25.3236 8.36602 25.9025 10.1064 26.3615 12.0192ZM13.9884 12.0192H24.0923C23.6487 10.1372 22.9904 8.36153 22.1173 6.6923C21.2442 5.02307 20.2051 3.53589 19 2.23075C17.8692 3.27179 16.9147 4.55769 16.1365 6.08845C15.3583 7.61922 14.6422 9.59614 13.9884 12.0192ZM3.6769 12.0192H11.6692C12.0872 10.1679 12.6372 8.46665 13.3193 6.91535C14.0013 5.36405 14.8206 3.92173 15.777 2.5884C13.0205 3.11917 10.6192 4.17944 8.57305 5.7692C6.52688 7.35894 4.89483 9.44227 3.6769 12.0192Z" fill="black"/>
</svg>
