<svg width="175" height="36" viewBox="0 0 175 36" fill="none" xmlns="http://www.w3.org/2000/svg">
<g clip-path="url(#clip0_1_5691)">
<path d="M16.4567 2.05969C16.798 1.34207 16.4946 0.482856 15.7792 0.140572C15.0637 -0.201711 14.2071 0.102552 13.8658 0.820166L0.478158 28.9728C-0.686117 31.4212 0.348824 34.3526 2.78978 35.5204C5.23073 36.6882 8.15335 35.6501 9.31762 33.2018L14.4615 22.3849L17.1657 16.5735C17.504 15.848 18.2303 15.3845 19.0287 15.3845C19.8272 15.3845 20.5535 15.848 20.8918 16.5735L23.6018 22.3849L25.4641 26.3013L27.3265 30.2178C27.805 31.224 27.3747 32.4312 26.3653 32.9141C25.3559 33.397 24.1497 32.9727 23.6712 31.9665L19.4599 23.2382C19.1162 22.5259 18.2635 22.2257 17.5514 22.5664C16.8335 22.9098 16.5314 23.7735 16.8778 24.4915L21.0821 33.2052C22.2385 35.6369 25.1533 36.6622 27.5927 35.4952C30.032 34.3282 31.072 31.4108 29.9156 28.9791L23.6465 15.796C22.9631 13.9093 21.16 12.5618 19.0428 12.5618C17.068 12.5618 15.3663 13.7343 14.5918 15.4231L6.72678 31.9623C6.24501 32.9754 5.03566 33.4049 4.02556 32.9217C3.01552 32.4385 2.58729 31.2255 3.06906 30.2124L16.4567 2.05969Z" fill="#22242C"/>
<path d="M49.4807 29.4387C49.1043 29.4387 48.7714 29.1943 48.6584 28.835L47.4967 25.1397H41.5112L40.3715 28.8308C40.2599 29.1923 39.926 29.4387 39.548 29.4387H38.1478C37.5588 29.4387 37.1433 28.8608 37.3305 28.302L42.4002 13.1692C42.5179 12.8177 42.847 12.5808 43.2174 12.5808H45.9336C46.3049 12.5808 46.6344 12.8187 46.7515 13.1713L51.7779 28.3041C51.9633 28.8625 51.5479 29.4387 50.9599 29.4387H49.4807ZM44.5522 15.479H44.4315L42.2835 22.4106H46.7244L44.5522 15.479Z" fill="#22242C"/>
<path d="M54.4445 12.429C54.4445 11.9526 54.8304 11.5664 55.3065 11.5664H56.6718C57.1479 11.5664 57.5338 11.9526 57.5338 12.429V18.9086H57.6303C57.8556 18.184 58.282 17.6124 58.9095 17.1938C59.537 16.759 60.2691 16.5417 61.1058 16.5417C62.7147 16.5417 63.9376 17.1133 64.7743 18.2565C65.627 19.3835 66.0534 21.0017 66.0534 23.111C66.0534 25.2363 65.627 26.8706 64.7743 28.0138C63.9376 29.157 62.7147 29.7286 61.1058 29.7286C60.2691 29.7286 59.537 29.5112 58.9095 29.0765C58.2981 28.6417 57.8717 28.0621 57.6303 27.3375H57.5338V28.5762C57.5338 29.0526 57.1479 29.4387 56.6718 29.4387H55.3065C54.8304 29.4387 54.4445 29.0526 54.4445 28.5762V12.429ZM60.1162 27.1685C60.9207 27.1685 61.5724 26.9028 62.0712 26.3715C62.5699 25.8401 62.8193 25.1236 62.8193 24.222V22.0483C62.8193 21.1466 62.5699 20.4301 62.0712 19.8988C61.5724 19.3513 60.9207 19.0776 60.1162 19.0776C59.3761 19.0776 58.7566 19.2628 58.2578 19.6331C57.7751 20.0034 57.5338 20.4945 57.5338 21.1064V25.1156C57.5338 25.7757 57.7751 26.2829 58.2578 26.6371C58.7566 26.9914 59.3761 27.1685 60.1162 27.1685Z" fill="#22242C"/>
<path d="M73.0431 29.7286C71.8364 29.7286 70.8227 29.5273 70.0021 29.1248C69.4169 28.8262 68.8808 28.4499 68.3938 27.9958C68.0598 27.6843 68.0854 27.161 68.4123 26.8422L69.0625 26.2082C69.416 25.8636 69.9815 25.8922 70.3559 26.2139C70.6357 26.4544 70.9281 26.6599 71.233 26.8304C71.7961 27.1363 72.4397 27.2892 73.1638 27.2892C73.9039 27.2892 74.4349 27.1604 74.7567 26.9028C75.0946 26.6452 75.2635 26.291 75.2635 25.8401C75.2635 25.4698 75.1429 25.18 74.9015 24.9707C74.6763 24.7452 74.282 24.5923 73.7189 24.5118L72.4639 24.3427C71.0962 24.1656 70.0504 23.7792 69.3263 23.1834C68.6184 22.5716 68.2644 21.686 68.2644 20.5267C68.2644 19.9149 68.377 19.3674 68.6023 18.8844C68.8275 18.3853 69.1494 17.9666 69.5677 17.6285C69.986 17.2743 70.4848 17.0086 71.0641 16.8315C71.6594 16.6383 72.3191 16.5417 73.0431 16.5417C73.6545 16.5417 74.1936 16.59 74.6602 16.6866C75.1429 16.7671 75.5773 16.8959 75.9634 17.073C76.3496 17.234 76.7036 17.4433 77.0254 17.701C77.1277 17.7778 77.2292 17.8578 77.3299 17.9412C77.6968 18.2447 77.6938 18.7952 77.3571 19.1321L76.7791 19.7105C76.4374 20.0524 75.8843 20.0393 75.4893 19.7607C75.2843 19.6162 75.0643 19.4851 74.8291 19.3674C74.3142 19.1098 73.7511 18.981 73.1397 18.981C72.4639 18.981 71.9731 19.1018 71.6674 19.3433C71.3778 19.5848 71.233 19.8988 71.233 20.2852C71.233 20.7038 71.3537 21.0259 71.595 21.2513C71.8525 21.4606 72.2788 21.6136 72.8742 21.7102L74.1533 21.8792C76.8725 22.2657 78.2321 23.5055 78.2321 25.5986C78.2321 26.2105 78.1034 26.774 77.846 27.2892C77.6046 27.7884 77.2587 28.2231 76.8082 28.5934C76.3576 28.9477 75.8106 29.2294 75.167 29.4387C74.5395 29.632 73.8315 29.7286 73.0431 29.7286Z" fill="#22242C"/>
<path d="M85.9559 29.7286C85.0548 29.7286 84.2423 29.5756 83.5182 29.2697C82.8103 28.9638 82.1989 28.521 81.684 27.9413C81.1852 27.3617 80.799 26.6693 80.5255 25.8643C80.252 25.0431 80.1152 24.1253 80.1152 23.111C80.1152 22.0966 80.252 21.1869 80.5255 20.3818C80.799 19.5768 81.1852 18.8925 81.684 18.3289C82.1989 17.7493 82.8103 17.3065 83.5182 17.0006C84.2423 16.6946 85.0548 16.5417 85.9559 16.5417C86.8569 16.5417 87.6695 16.6946 88.3935 17.0006C89.1175 17.3065 89.729 17.7493 90.2278 18.3289C90.7426 18.8925 91.1368 19.5768 91.4104 20.3818C91.6839 21.1869 91.8207 22.0966 91.8207 23.111C91.8207 24.1253 91.6839 25.0431 91.4104 25.8643C91.1368 26.6693 90.7426 27.3617 90.2278 27.9413C89.729 28.521 89.1175 28.9638 88.3935 29.2697C87.6695 29.5756 86.8569 29.7286 85.9559 29.7286ZM85.9559 27.2409C86.7765 27.2409 87.4201 26.9914 87.8867 26.4922C88.3533 25.9931 88.5866 25.2605 88.5866 24.2944V21.9517C88.5866 21.0017 88.3533 20.2772 87.8867 19.778C87.4201 19.2789 86.7765 19.0293 85.9559 19.0293C85.1514 19.0293 84.5158 19.2789 84.0492 19.778C83.5826 20.2772 83.3493 21.0017 83.3493 21.9517V24.2944C83.3493 25.2605 83.5826 25.9931 84.0492 26.4922C84.5158 26.9914 85.1514 27.2409 85.9559 27.2409Z" fill="#22242C"/>
<path d="M97.6487 29.4387C96.5867 29.4387 95.8064 29.1731 95.3076 28.6417C94.8088 28.1104 94.5594 27.3617 94.5594 26.3956V12.429C94.5594 11.9526 94.9453 11.5664 95.4214 11.5664H96.7867C97.2628 11.5664 97.6487 11.9526 97.6487 12.429V26.9753H98.452C98.9281 26.9753 99.314 27.3614 99.314 27.8378V28.5762C99.314 29.0526 98.9281 29.4387 98.452 29.4387H97.6487Z" fill="#22242C"/>
<path d="M109.184 27.3375H109.063C108.951 27.6596 108.798 27.9655 108.605 28.2553C108.428 28.529 108.194 28.7786 107.905 29.004C107.631 29.2294 107.293 29.4065 106.891 29.5354C106.505 29.6642 106.054 29.7286 105.539 29.7286C104.236 29.7286 103.239 29.3019 102.547 28.4485C101.855 27.5952 101.509 26.3795 101.509 24.8016V17.6941C101.509 17.2177 101.895 16.8315 102.371 16.8315H103.736C104.212 16.8315 104.598 17.2177 104.598 17.6941V24.4876C104.598 25.3571 104.767 26.0253 105.105 26.4922C105.443 26.9431 105.982 27.1685 106.722 27.1685C107.028 27.1685 107.325 27.1282 107.615 27.0477C107.921 26.9672 108.186 26.8465 108.412 26.6854C108.637 26.5083 108.822 26.299 108.967 26.0575C109.111 25.7999 109.184 25.502 109.184 25.1639V17.6941C109.184 17.2177 109.57 16.8315 110.046 16.8315H111.411C111.887 16.8315 112.273 17.2177 112.273 17.6941V28.5762C112.273 29.0526 111.887 29.4387 111.411 29.4387H110.046C109.57 29.4387 109.184 29.0526 109.184 28.5762V27.3375Z" fill="#22242C"/>
<path d="M119.776 29.4387C118.715 29.4387 117.902 29.165 117.339 28.6176C116.792 28.054 116.518 27.257 116.518 26.2266V19.295H115.522C115.046 19.295 114.66 18.9088 114.66 18.4324V17.6941C114.66 17.2177 115.046 16.8315 115.522 16.8315H115.625C116.092 16.8315 116.406 16.7268 116.566 16.5175C116.743 16.2921 116.832 15.962 116.832 15.5273V14.2404C116.832 13.764 117.218 13.3778 117.694 13.3778H118.746C119.222 13.3778 119.607 13.764 119.607 14.2404V16.8315H121.328C121.804 16.8315 122.19 17.2177 122.19 17.6941V18.4324C122.19 18.9088 121.804 19.295 121.328 19.295H119.607V26.9753H121.135C121.611 26.9753 121.997 27.3614 121.997 27.8378V28.5762C121.997 29.0526 121.611 29.4387 121.135 29.4387H119.776Z" fill="#22242C"/>
<path d="M131.729 29.4387C131.253 29.4387 130.867 29.0525 130.867 28.5762V13.4433C130.867 12.9669 131.253 12.5808 131.729 12.5808H138.446C139.218 12.5808 139.91 12.7096 140.521 12.9672C141.149 13.2087 141.68 13.5629 142.114 14.0299C142.549 14.4807 142.878 15.0281 143.104 15.6722C143.329 16.3162 143.442 17.0247 143.442 17.7975C143.442 18.5865 143.329 19.303 143.104 19.9471C142.878 20.575 142.549 21.1224 142.114 21.5894C141.68 22.0402 141.149 22.3944 140.521 22.6521C139.91 22.8936 139.218 23.0143 138.446 23.0143H134.053V28.5762C134.053 29.0525 133.667 29.4387 133.191 29.4387H131.729ZM134.053 20.261H138.156C138.768 20.261 139.25 20.1 139.604 19.778C139.958 19.4399 140.135 18.9649 140.135 18.353V17.2421C140.135 16.6302 139.958 16.1633 139.604 15.8412C139.25 15.5192 138.768 15.3582 138.156 15.3582H134.053V20.261Z" fill="#22242C"/>
<path d="M152.942 29.7285C151.832 29.7285 150.826 29.5434 149.925 29.173C149.024 28.8027 148.252 28.2472 147.608 27.5066C146.98 26.7659 146.49 25.8562 146.136 24.7774C145.782 23.6986 145.605 22.4427 145.605 21.0097C145.605 19.5928 145.782 18.345 146.136 17.2662C146.49 16.1713 146.98 15.2536 147.608 14.5129C148.252 13.7722 149.024 13.2168 149.925 12.8464C150.826 12.4761 151.832 12.2909 152.942 12.2909C154.052 12.2909 155.058 12.4761 155.959 12.8464C156.86 13.2168 157.632 13.7722 158.276 14.5129C158.919 15.2536 159.41 16.1713 159.748 17.2662C160.102 18.345 160.279 19.5928 160.279 21.0097C160.279 22.4427 160.102 23.6986 159.748 24.7774C159.41 25.8562 158.919 26.7659 158.276 27.5066C157.632 28.2472 156.86 28.8027 155.959 29.173C155.058 29.5434 154.052 29.7285 152.942 29.7285ZM152.942 26.9028C154.148 26.9028 155.106 26.5002 155.814 25.6952C156.538 24.8901 156.9 23.763 156.9 22.3139V19.7055C156.9 18.2564 156.538 17.1293 155.814 16.3243C155.106 15.5192 154.148 15.1167 152.942 15.1167C151.735 15.1167 150.77 15.5192 150.046 16.3243C149.338 17.1293 148.984 18.2564 148.984 19.7055V22.3139C148.984 23.763 149.338 24.8901 150.046 25.6952C150.77 26.5002 151.735 26.9028 152.942 26.9028Z" fill="#22242C"/>
<path d="M168.677 29.7285C167.229 29.7285 165.998 29.4709 164.985 28.9557C164.234 28.5678 163.56 28.0887 162.964 27.5184C162.634 27.2018 162.66 26.6778 162.989 26.3596L163.892 25.4861C164.249 25.141 164.819 25.1736 165.188 25.5058C165.592 25.8698 166.023 26.1664 166.481 26.3956C167.205 26.7498 168.002 26.9269 168.87 26.9269C169.852 26.9269 170.592 26.7176 171.091 26.299C171.59 25.8643 171.839 25.2846 171.839 24.5601C171.839 23.9965 171.678 23.5376 171.356 23.1834C171.035 22.8292 170.431 22.5716 169.546 22.4105L167.953 22.169C164.59 21.6377 162.909 20.0034 162.909 17.2662C162.909 16.5094 163.046 15.8251 163.319 15.2133C163.609 14.6015 164.019 14.0782 164.55 13.6434C165.081 13.2087 165.717 12.8786 166.457 12.6532C167.213 12.4117 168.066 12.2909 169.015 12.2909C170.286 12.2909 171.397 12.5002 172.346 12.9189C173.052 13.2303 173.682 13.653 174.237 14.1871C174.564 14.5016 174.528 15.0204 174.198 15.3319L173.287 16.1934C172.922 16.5378 172.345 16.4925 171.962 16.1686C171.697 15.9438 171.406 15.7461 171.091 15.5756C170.496 15.2536 169.747 15.0925 168.846 15.0925C167.929 15.0925 167.237 15.2697 166.771 15.6239C166.32 15.962 166.095 16.445 166.095 17.073C166.095 17.717 166.28 18.192 166.65 18.4979C167.02 18.8039 167.615 19.0293 168.436 19.1742L170.005 19.464C171.71 19.7699 172.965 20.3174 173.77 21.1063C174.59 21.8792 175.001 22.966 175.001 24.3668C175.001 25.1719 174.856 25.9045 174.566 26.5647C174.293 27.2087 173.882 27.7722 173.335 28.2553C172.804 28.7222 172.145 29.0845 171.356 29.3421C170.584 29.5997 169.691 29.7285 168.677 29.7285Z" fill="#22242C"/>
</g>
<defs>
<clipPath id="clip0_1_5691">
<rect width="175" height="36" fill="white"/>
</clipPath>
</defs>
</svg>
