<svg width="26" height="42" viewBox="0 0 26 42" fill="none" xmlns="http://www.w3.org/2000/svg">
<path d="M2.88471 41.9999C2.10041 41.9999 1.42356 41.7152 0.85416 41.1458C0.28476 40.5764 6.10352e-05 39.8996 6.10352e-05 39.1153V2.88465C6.10352e-05 2.10035 0.28476 1.4235 0.85416 0.854102C1.42356 0.284702 2.10041 0 2.88471 0H23.1153C23.8996 0 24.5765 0.284702 25.1459 0.854102C25.7153 1.4235 26 2.10035 26 2.88465V39.1153C26 39.8996 25.7153 40.5764 25.1459 41.1458C24.5765 41.7152 23.8996 42 23.1153 42H2.88471V41.9999ZM2.26926 34.3653V39.1153C2.26926 39.2691 2.33336 39.4102 2.46156 39.5384C2.58979 39.6666 2.73084 39.7307 2.88471 39.7307H23.1153C23.2692 39.7307 23.4102 39.6666 23.5385 39.5384C23.6667 39.4102 23.7308 39.2691 23.7308 39.1153V34.3653H2.26926ZM13.0091 38.4422C13.3979 38.4422 13.7276 38.3072 13.9981 38.0373C14.2686 37.7673 14.4039 37.4346 14.4039 37.0392C14.4039 36.6438 14.2656 36.3108 13.989 36.0403C13.7124 35.7698 13.3797 35.6345 12.9909 35.6345C12.6021 35.6345 12.2725 35.7728 12.002 36.0493C11.7314 36.3258 11.5962 36.6585 11.5962 37.0471C11.5962 37.449 11.7345 37.782 12.0111 38.0461C12.2876 38.3102 12.6203 38.4422 13.0091 38.4422ZM2.26926 32.0961H23.7308V6.67305H2.26926V32.0961ZM2.26926 4.40385H23.7308V2.88465C23.7308 2.73078 23.6667 2.58974 23.5385 2.4615C23.4102 2.3333 23.2692 2.2692 23.1153 2.2692H2.88471C2.73084 2.2692 2.58979 2.3333 2.46156 2.4615C2.33336 2.58974 2.26926 2.73078 2.26926 2.88465V4.40385Z" fill="black"/>
</svg>
